<svg width="25" height="24" viewBox="0 0 25 24" fill="none" xmlns="http://www.w3.org/2000/svg">
<g id="user 25">
<circle id="Ellipse 89" cx="12.7148" cy="12" r="12" fill="#D9D9D9"/>
<path id="Vector" d="M17.7147 15.0109C17.7147 16.8396 16.4294 17.6846 14.4404 17.9237C13.9581 17.974 13.4144 17.9996 12.8837 17.9996C12.142 17.9996 11.4004 17.9493 10.7581 17.8858C9.83152 17.7852 8.87983 17.016 8.79339 15.6911C8.66979 13.4972 8.70609 11.5301 8.80549 9.3107C8.87983 7.97341 9.83066 7.21743 10.7581 7.11599C11.3883 7.05336 12.1291 7.00308 12.8586 7.00308C13.4144 6.99073 13.9581 7.01543 14.4404 7.07894C16.4303 7.2933 17.5419 7.89843 17.5419 9.96699C17.5419 11.1526 17.0103 12.287 15.2184 12.287C15.0204 12.287 15.0204 12.6654 15.2184 12.6654C15.5641 12.6654 16.0335 12.6398 16.4545 12.4387C17.3197 12.7166 17.7147 13.5607 17.7147 15.0109Z" fill="white"/>
</g>
</svg>
