<svg width="61" height="61" viewBox="0 0 61 61" fill="none" xmlns="http://www.w3.org/2000/svg">
<rect x="0.5" y="0.5" width="60" height="60" stroke="black"/>
<path d="M39.3955 29.2292H36.8538L33.0413 36.8542L27.958 21.6042L24.1455 29.2292H21.6038M30.4823 13.0535C25.4006 7.1126 16.9265 5.51451 10.5595 10.9546C4.19252 16.3947 3.29613 25.4903 8.29618 31.9244C12.0728 36.7841 22.8017 46.5403 27.8259 51.0237C28.7494 51.8478 29.2112 52.2599 29.752 52.4221C30.2214 52.5629 30.7431 52.5629 31.2125 52.4221C31.7533 52.2599 32.2151 51.8478 33.1387 51.0237C38.1628 46.5403 48.8917 36.7841 52.6684 31.9244C57.6684 25.4903 56.8815 16.3375 50.405 10.9546C43.9286 5.57173 35.564 7.1126 30.4823 13.0535Z" stroke="url(#paint0_linear_11_3856)" stroke-width="5.08333" stroke-linecap="round" stroke-linejoin="round"/>
<defs>
<linearGradient id="paint0_linear_11_3856" x1="5.08301" y1="30.0764" x2="55.9163" y2="30.0764" gradientUnits="userSpaceOnUse">
<stop stop-color="#FF7C31"/>
<stop offset="1" stop-color="#FE65B7"/>
</linearGradient>
</defs>
</svg>
