<svg width="54" height="54" viewBox="0 0 54 54" fill="none" xmlns="http://www.w3.org/2000/svg">
<path d="M7.02246 17.7025C7.02246 13.9653 7.02246 12.0967 7.74976 10.6693C8.38951 9.41374 9.41033 8.39293 10.6659 7.75318C12.0933 7.02588 13.9619 7.02588 17.699 7.02588H36.383C40.1202 7.02588 41.9888 7.02588 43.4162 7.75318C44.6717 8.39293 45.6926 9.41374 46.3323 10.6693C47.0596 12.0967 47.0596 13.9653 47.0596 17.7025V30.3809C47.0596 33.49 47.0596 35.0446 46.5517 36.2709C45.8744 37.9059 44.5754 39.205 42.9403 39.8822C41.7141 40.3902 40.1595 40.3902 37.0503 40.3902C35.9636 40.3902 35.4202 40.3902 34.9161 40.5092C34.244 40.6678 33.618 40.9808 33.0878 41.4233C32.6901 41.7552 32.3641 42.1899 31.712 43.0593L28.4646 47.3893C27.9816 48.0332 27.7402 48.3551 27.4442 48.4703C27.1849 48.5711 26.8972 48.5711 26.6379 48.4703C26.3419 48.3551 26.1004 48.0332 25.6175 47.3893L22.37 43.0593C21.718 42.1899 21.392 41.7552 20.9943 41.4233C20.4641 40.9808 19.8381 40.6678 19.166 40.5092C18.6619 40.3902 18.1185 40.3902 17.0317 40.3902C13.9226 40.3902 12.368 40.3902 11.1417 39.8822C9.50669 39.205 8.20766 37.9059 7.5304 36.2709C7.02246 35.0446 7.02246 33.49 7.02246 30.3809V17.7025Z" stroke="#107899" stroke-width="4.44857" stroke-linecap="round" stroke-linejoin="round"/>
<path fill-rule="evenodd" clip-rule="evenodd" d="M27.0349 18.8826C25.2561 16.8608 22.2897 16.3169 20.061 18.1683C17.8322 20.0197 17.5184 23.1152 19.2687 25.3049C20.3095 26.607 22.8587 28.942 24.7543 30.621C25.5368 31.314 25.9281 31.6606 26.399 31.8011C26.8019 31.9213 27.2679 31.9213 27.6709 31.8011C28.1418 31.6606 28.5331 31.314 29.3156 30.621C31.2112 28.942 33.7604 26.607 34.8012 25.3049C36.5515 23.1152 36.276 20.0003 34.0089 18.1683C31.7418 16.3364 28.8138 16.8608 27.0349 18.8826Z" stroke="#107899" stroke-width="4.44857" stroke-linecap="round" stroke-linejoin="round"/>
</svg>
