<svg width="54" height="54" viewBox="0 0 54 54" fill="none" xmlns="http://www.w3.org/2000/svg">
<path d="M22.2546 19.5091C22.6465 18.395 23.42 17.4555 24.4382 16.8571C25.4564 16.2587 26.6535 16.04 27.8175 16.2396C28.9816 16.4393 30.0374 17.0445 30.7979 17.948C31.5585 18.8515 31.9748 19.995 31.973 21.176C31.973 24.51 26.9721 26.1769 26.9721 26.1769M27.0366 32.8498H27.0588M22.0321 43.3039L25.2796 47.6339C25.7625 48.2778 26.004 48.5998 26.3 48.7149C26.5593 48.8157 26.847 48.8157 27.1063 48.7149C27.4023 48.5998 27.6438 48.2778 28.1267 47.6339L31.3741 43.3039C32.0262 42.4346 32.3522 41.9999 32.7499 41.668C33.2801 41.2255 33.9061 40.9125 34.5782 40.7538C35.0823 40.6348 35.6257 40.6348 36.7124 40.6348C39.8216 40.6348 41.3762 40.6348 42.6025 40.1269C44.2375 39.4496 45.5365 38.1506 46.2138 36.5155C46.7217 35.2893 46.7217 33.7347 46.7217 30.6255V17.9471C46.7217 14.2099 46.7217 12.3414 45.9944 10.914C45.3547 9.65837 44.3339 8.63756 43.0783 7.99781C41.6509 7.27051 39.7823 7.27051 36.0451 7.27051H17.3611C13.624 7.27051 11.7554 7.27051 10.328 7.99781C9.07244 8.63756 8.05162 9.65837 7.41187 10.914C6.68457 12.3414 6.68457 14.2099 6.68457 17.9471V30.6255C6.68457 33.7347 6.68457 35.2893 7.19251 36.5155C7.86977 38.1506 9.1688 39.4496 10.8038 40.1269C12.0301 40.6348 13.5847 40.6348 16.6939 40.6348C17.7806 40.6348 18.324 40.6348 18.8281 40.7538C19.5002 40.9125 20.1262 41.2255 20.6564 41.668C21.0541 41.9999 21.3801 42.4346 22.0321 43.3039Z" stroke="#FAC70B" stroke-width="4.44857" stroke-linecap="round" stroke-linejoin="round"/>
</svg>
