<svg width="54" height="54" viewBox="0 0 54 54" fill="none" xmlns="http://www.w3.org/2000/svg">
<path d="M22.6242 19.5091C23.0161 18.395 23.7897 17.4555 24.8079 16.8571C25.826 16.2587 27.0232 16.04 28.1872 16.2396C29.3512 16.4393 30.407 17.0445 31.1676 17.948C31.9281 18.8515 32.3444 19.995 32.3426 21.176C32.3426 24.51 27.3417 26.1769 27.3417 26.1769M27.4062 32.8498H27.4284M22.4018 43.3039L25.6492 47.6339C26.1322 48.2778 26.3736 48.5998 26.6697 48.7149C26.9289 48.8157 27.2166 48.8157 27.4759 48.7149C27.7719 48.5998 28.0134 48.2778 28.4963 47.6339L31.7438 43.3039C32.3958 42.4346 32.7218 41.9999 33.1195 41.668C33.6497 41.2255 34.2757 40.9125 34.9478 40.7538C35.452 40.6348 35.9953 40.6348 37.0821 40.6348C40.1912 40.6348 41.7458 40.6348 42.9721 40.1269C44.6071 39.4496 45.9062 38.1506 46.5834 36.5155C47.0913 35.2893 47.0913 33.7347 47.0913 30.6255V17.9471C47.0913 14.2099 47.0913 12.3414 46.3641 10.914C45.7243 9.65837 44.7035 8.63756 43.4479 7.99781C42.0205 7.27051 40.1519 7.27051 36.4148 7.27051H17.7308C13.9936 7.27051 12.125 7.27051 10.6976 7.99781C9.44206 8.63756 8.42125 9.65837 7.7815 10.914C7.0542 12.3414 7.0542 14.2099 7.0542 17.9471V30.6255C7.0542 33.7347 7.0542 35.2893 7.56214 36.5155C8.2394 38.1506 9.53843 39.4496 11.1735 40.1269C12.3997 40.6348 13.9543 40.6348 17.0635 40.6348C18.1502 40.6348 18.6936 40.6348 19.1977 40.7538C19.8698 40.9125 20.4958 41.2255 21.026 41.668C21.4237 41.9999 21.7497 42.4346 22.4018 43.3039Z" stroke="black" stroke-width="4.44857" stroke-linecap="round" stroke-linejoin="round"/>
</svg>
