<svg width="54" height="55" viewBox="0 0 54 55" fill="none" xmlns="http://www.w3.org/2000/svg">
<path d="M26.939 24.0576V16.2726M26.939 31.8426H26.9612M22.268 43.4089L25.5154 47.7389C25.9984 48.3828 26.2398 48.7047 26.5359 48.8199C26.7952 48.9207 27.0828 48.9207 27.3421 48.8199C27.6381 48.7047 27.8796 48.3828 28.3625 47.7389L31.61 43.4089C32.262 42.5395 32.588 42.1048 32.9857 41.773C33.5159 41.3304 34.1419 41.0175 34.8141 40.8588C35.3182 40.7398 35.8615 40.7398 36.9483 40.7398C40.0574 40.7398 41.612 40.7398 42.8383 40.2318C44.4733 39.5546 45.7724 38.2556 46.4496 36.6205C46.9576 35.3942 46.9576 33.8397 46.9576 30.7305V18.0521C46.9576 14.3149 46.9576 12.4463 46.2303 11.0189C45.5905 9.76335 44.5697 8.74254 43.3141 8.10279C41.8867 7.37549 40.0181 7.37549 36.281 7.37549H17.597C13.8598 7.37549 11.9913 7.37549 10.5639 8.10279C9.30828 8.74254 8.28746 9.76335 7.64771 11.0189C6.92041 12.4463 6.92041 14.3149 6.92041 18.0521V30.7305C6.92041 33.8397 6.92041 35.3942 7.42835 36.6205C8.10561 38.2556 9.40464 39.5546 11.0397 40.2318C12.266 40.7398 13.8205 40.7398 16.9297 40.7398C18.0164 40.7398 18.5598 40.7398 19.0639 40.8588C19.7361 41.0175 20.362 41.3304 20.8923 41.773C21.2899 42.1048 21.6159 42.5395 22.268 43.4089Z" stroke="#F40968" stroke-width="4.68583" stroke-linecap="round" stroke-linejoin="round"/>
</svg>
