<svg width="54" height="55" viewBox="0 0 54 55" fill="none" xmlns="http://www.w3.org/2000/svg">
<path d="M27.3086 24.0576V16.2726M27.3086 31.8426H27.3309M22.6376 43.4089L25.8851 47.7389C26.368 48.3828 26.6095 48.7047 26.9055 48.8199C27.1648 48.9207 27.4524 48.9207 27.7117 48.8199C28.0078 48.7047 28.2492 48.3828 28.7322 47.7389L31.9796 43.4089C32.6317 42.5395 32.9577 42.1048 33.3553 41.773C33.8856 41.3304 34.5115 41.0175 35.1837 40.8588C35.6878 40.7398 36.2312 40.7398 37.3179 40.7398C40.4271 40.7398 41.9816 40.7398 43.2079 40.2318C44.843 39.5546 46.142 38.2556 46.8192 36.6205C47.3272 35.3942 47.3272 33.8397 47.3272 30.7305V18.0521C47.3272 14.3149 47.3272 12.4463 46.5999 11.0189C45.9601 9.76335 44.9393 8.74254 43.6837 8.10279C42.2563 7.37549 40.3878 7.37549 36.6506 7.37549H17.9666C14.2295 7.37549 12.3609 7.37549 10.9335 8.10279C9.6779 8.74254 8.65709 9.76335 8.01734 11.0189C7.29004 12.4463 7.29004 14.3149 7.29004 18.0521V30.7305C7.29004 33.8397 7.29004 35.3942 7.79798 36.6205C8.47523 38.2556 9.77427 39.5546 11.4093 40.2318C12.6356 40.7398 14.1902 40.7398 17.2993 40.7398C18.3861 40.7398 18.9294 40.7398 19.4335 40.8588C20.1057 41.0175 20.7317 41.3304 21.2619 41.773C21.6595 42.1048 21.9856 42.5395 22.6376 43.4089Z" stroke="black" stroke-width="4.68583" stroke-linecap="round" stroke-linejoin="round"/>
</svg>
