<svg width="55" height="54" viewBox="0 0 55 54" fill="none" xmlns="http://www.w3.org/2000/svg">
<path d="M7.39355 17.7025C7.39355 13.9653 7.39355 12.0967 8.12085 10.6693C8.7606 9.41374 9.78142 8.39293 11.037 7.75318C12.4644 7.02588 14.333 7.02588 18.0701 7.02588H36.7541C40.4913 7.02588 42.3599 7.02588 43.7873 7.75318C45.0428 8.39293 46.0637 9.41374 46.7034 10.6693C47.4307 12.0967 47.4307 13.9653 47.4307 17.7025V30.3809C47.4307 33.49 47.4307 35.0446 46.9228 36.2709C46.2455 37.9059 44.9465 39.205 43.3114 39.8822C42.0852 40.3902 40.5306 40.3902 37.4214 40.3902C36.3347 40.3902 35.7913 40.3902 35.2872 40.5092C34.6151 40.6678 33.9891 40.9808 33.4589 41.4233C33.0612 41.7552 32.7352 42.1899 32.0831 43.0593L28.8357 47.3893C28.3527 48.0332 28.1113 48.3551 27.8152 48.4703C27.556 48.5711 27.2683 48.5711 27.009 48.4703C26.713 48.3551 26.4715 48.0332 25.9886 47.3893L22.7411 43.0593C22.0891 42.1899 21.7631 41.7552 21.3654 41.4233C20.8352 40.9808 20.2092 40.6678 19.5371 40.5092C19.0329 40.3902 18.4896 40.3902 17.4028 40.3902C14.2937 40.3902 12.7391 40.3902 11.5128 39.8822C9.87778 39.205 8.57875 37.9059 7.9015 36.2709C7.39355 35.0446 7.39355 33.49 7.39355 30.3809V17.7025Z" stroke="black" stroke-width="4.44857" stroke-linecap="round" stroke-linejoin="round"/>
<path fill-rule="evenodd" clip-rule="evenodd" d="M27.406 18.8826C25.6272 16.8608 22.6608 16.3169 20.432 18.1683C18.2033 20.0197 17.8895 23.1152 19.6398 25.3049C20.6806 26.607 23.2298 28.942 25.1254 30.621C25.9079 31.314 26.2992 31.6606 26.7701 31.8011C27.173 31.9213 27.639 31.9213 28.042 31.8011C28.5129 31.6606 28.9042 31.314 29.6867 30.621C31.5823 28.942 34.1315 26.607 35.1723 25.3049C36.9226 23.1152 36.6471 20.0003 34.38 18.1683C32.1129 16.3364 29.1849 16.8608 27.406 18.8826Z" stroke="black" stroke-width="4.44857" stroke-linecap="round" stroke-linejoin="round"/>
</svg>
