<svg xmlns="http://www.w3.org/2000/svg" width="44" height="44" viewBox="0 0 44 44" fill="none">
    <path d="M21.9993 22.0003H22.0176M28.4811 28.4821C19.8895 37.0736 10.0227 41.1364 6.44292 37.5566C2.86312 33.9768 6.92592 24.11 15.5175 15.5184C24.109 6.92692 33.9758 2.86411 37.5556 6.44391C41.1354 10.0237 37.0726 19.8905 28.4811 28.4821ZM28.481 15.5181C37.0725 24.1096 41.1354 33.9765 37.5555 37.5563C33.9757 41.1361 24.1089 37.0733 15.5174 28.4817C6.92585 19.8902 2.86304 10.0234 6.44285 6.44358C10.0227 2.86378 19.8895 6.92658 28.481 15.5181ZM22.9159 22.0003C22.9159 22.5065 22.5055 22.9169 21.9993 22.9169C21.493 22.9169 21.0826 22.5065 21.0826 22.0003C21.0826 21.494 21.493 21.0836 21.9993 21.0836C22.5055 21.0836 22.9159 21.494 22.9159 22.0003Z" stroke="black" stroke-width="3.2" stroke-linecap="round" stroke-linejoin="round"/>
</svg>
