<svg width="72" height="72" viewBox="0 0 72 72" fill="none" xmlns="http://www.w3.org/2000/svg">
<path d="M28.0619 63C30.1772 64.8671 32.956 66 35.9993 66C39.0427 66 41.8214 64.8671 43.9368 63M53.9993 24C53.9993 19.2261 52.1029 14.6477 48.7272 11.2721C45.3516 7.89642 40.7732 6 35.9993 6C31.2254 6 26.6471 7.89642 23.2714 11.2721C19.8957 14.6477 17.9993 19.2261 17.9993 24C17.9993 33.2706 15.6607 39.6179 13.0483 43.8162C10.8447 47.3576 9.7429 49.1283 9.7833 49.6223C9.82803 50.1692 9.9439 50.3778 10.3847 50.7047C10.7827 51 12.5771 51 16.1659 51H55.8328C59.4216 51 61.2159 51 61.614 50.7047C62.0547 50.3778 62.1706 50.1692 62.2153 49.6223C62.2557 49.1283 61.1539 47.3576 58.9503 43.8162C56.3379 39.6179 53.9993 33.2706 53.9993 24Z" stroke="black" stroke-width="6" stroke-linecap="round" stroke-linejoin="round"/>
</svg>
