<svg xmlns="http://www.w3.org/2000/svg" width="16" height="17" viewBox="0 0 16 17" fill="none">
  <path d="M6.00016 7.83333L7.3335 9.16667L10.3335 6.16667M7.9956 3.92388C6.6627 2.3656 4.43999 1.94643 2.76996 3.37334C1.09993 4.80026 0.864808 7.18598 2.17629 8.8736C3.16689 10.1483 5.98102 12.7073 7.29884 13.8833C7.54109 14.0994 7.66221 14.2075 7.80405 14.2501C7.92718 14.287 8.06401 14.287 8.18714 14.2501C8.32898 14.2075 8.45011 14.0994 8.69236 13.8833C10.0102 12.7073 12.8243 10.1483 13.8149 8.8736C15.1264 7.18598 14.92 4.78525 13.2212 3.37334C11.5225 1.96144 9.3285 2.3656 7.9956 3.92388Z" stroke="url(#paint0_linear_20_32920)" stroke-width="1.2" stroke-linecap="round" stroke-linejoin="round"/>
  <defs>
    <linearGradient id="paint0_linear_20_32920" x1="1.3335" y1="8.38888" x2="14.6668" y2="8.38888" gradientUnits="userSpaceOnUse">
      <stop stop-color="#FF9456"/>
      <stop offset="1" stop-color="#FE81C4"/>
    </linearGradient>
  </defs>
</svg>