<svg xmlns="http://www.w3.org/2000/svg" width="20" height="20" viewBox="0 0 20 20" fill="none">
  <g clip-path="url(#clip0_161_6903)">
    <path d="M7.50008 9.99935L9.16675 11.666L12.9167 7.91602M6.11155 3.18159C6.78142 3.12814 7.41734 2.86473 7.92881 2.42887C9.12235 1.41173 10.8778 1.41173 12.0714 2.42887C12.5828 2.86473 13.2187 3.12814 13.8886 3.1816C15.4518 3.30634 16.6931 4.54764 16.8178 6.11082C16.8713 6.78068 17.1347 7.41661 17.5706 7.92807C18.5877 9.12162 18.5877 10.8771 17.5706 12.0706C17.1347 12.5821 16.8713 13.218 16.8178 13.8879C16.6931 15.4511 15.4518 16.6924 13.8886 16.8171C13.2187 16.8706 12.5828 17.134 12.0714 17.5698C10.8778 18.587 9.12235 18.587 7.92881 17.5698C7.41734 17.134 6.78142 16.8706 6.11155 16.8171C4.54837 16.6924 3.30707 15.4511 3.18233 13.8879C3.12887 13.218 2.86546 12.5821 2.4296 12.0706C1.41246 10.8771 1.41246 9.12162 2.4296 7.92807C2.86546 7.41661 3.12887 6.78068 3.18233 6.11082C3.30707 4.54764 4.54837 3.30634 6.11155 3.18159Z" stroke="#1890FF" stroke-width="2" stroke-linecap="round" stroke-linejoin="round"/>
  </g>
  <defs>
    <clipPath id="clip0_161_6903">
      <rect width="20" height="20" fill="white"/>
    </clipPath>
  </defs>
</svg>