<svg xmlns="http://www.w3.org/2000/svg" width="16" height="17" viewBox="0 0 16 17" fill="none">
  <path d="M5.99992 7.83333L7.33325 9.16667L10.3333 6.16667M7.99535 3.92388C6.66245 2.3656 4.43975 1.94643 2.76972 3.37334C1.09968 4.80026 0.864564 7.18598 2.17605 8.8736C3.16665 10.1483 5.98078 12.7073 7.29859 13.8833C7.54084 14.0994 7.66197 14.2075 7.8038 14.2501C7.92694 14.287 8.06377 14.287 8.1869 14.2501C8.32874 14.2075 8.44986 14.0994 8.69211 13.8833C10.0099 12.7073 12.8241 10.1483 13.8147 8.8736C15.1261 7.18598 14.9197 4.78525 13.221 3.37334C11.5222 1.96144 9.32825 2.3656 7.99535 3.92388Z" stroke="url(#paint0_linear_161_6891)" stroke-width="1.2" stroke-linecap="round" stroke-linejoin="round"/>
  <defs>
    <linearGradient id="paint0_linear_161_6891" x1="1.33325" y1="8.38888" x2="14.6666" y2="8.38888" gradientUnits="userSpaceOnUse">
      <stop stop-color="#FF9456"/>
      <stop offset="1" stop-color="#FE81C4"/>
    </linearGradient>
  </defs>
</svg>