<svg width="16" height="16" viewBox="0 0 16 16" fill="none" xmlns="http://www.w3.org/2000/svg">
<g id="check-heart">
<path id="Icon" d="M5.99967 7.33333L7.33301 8.66667L10.333 5.66667M7.99511 3.42388C6.66221 1.8656 4.4395 1.44643 2.76947 2.87334C1.09944 4.30026 0.86432 6.68598 2.17581 8.3736C3.1664 9.64829 5.98054 12.2073 7.29835 13.3833C7.5406 13.5994 7.66172 13.7075 7.80356 13.7501C7.92669 13.787 8.06352 13.787 8.18666 13.7501C8.32849 13.7075 8.44962 13.5994 8.69187 13.3833C10.0097 12.2073 12.8238 9.64829 13.8144 8.3736C15.1259 6.68598 14.9195 4.28525 13.2207 2.87334C11.522 1.46144 9.32801 1.8656 7.99511 3.42388Z" stroke="white" stroke-width="1.2" stroke-linecap="round" stroke-linejoin="round"/>
</g>
</svg>
