<svg width="25" height="25" viewBox="0 0 25 25" fill="none" xmlns="http://www.w3.org/2000/svg">
<g id="check-verified-01">
<path id="Icon" d="M9.95801 12.9688L11.958 14.9688L16.458 10.4688M8.29178 4.78745C9.09561 4.7233 9.85872 4.40721 10.4725 3.88417C11.9047 2.66361 14.0113 2.66361 15.4435 3.88417C16.0573 4.40721 16.8204 4.7233 17.6242 4.78745C19.5001 4.93714 20.9896 6.42669 21.1393 8.30252C21.2035 9.10635 21.5196 9.86946 22.0426 10.4832C23.2631 11.9155 23.2631 14.022 22.0426 15.4543C21.5196 16.068 21.2035 16.8311 21.1393 17.635C20.9896 19.5108 19.5001 21.0004 17.6242 21.1501C16.8204 21.2142 16.0573 21.5303 15.4435 22.0533C14.0113 23.2739 11.9047 23.2739 10.4725 22.0533C9.85872 21.5303 9.09561 21.2142 8.29178 21.1501C6.41595 21.0004 4.92639 19.5108 4.7767 17.635C4.71256 16.8311 4.39647 16.068 3.87343 15.4543C2.65287 14.022 2.65287 11.9155 3.87343 10.4832C4.39647 9.86946 4.71256 9.10635 4.7767 8.30252C4.9264 6.42669 6.41595 4.93714 8.29178 4.78745Z" stroke="white" stroke-width="2.03328" stroke-linecap="round" stroke-linejoin="round"/>
</g>
</svg>
