<svg width="28" height="28" viewBox="0 0 28 28" fill="none" xmlns="http://www.w3.org/2000/svg">
<path d="M10.4997 12.8333L12.833 15.1667L18.083 9.91667M13.9917 5.99178C11.6591 3.2648 7.76938 2.53125 4.84682 5.02835C1.92426 7.52545 1.5128 11.7005 3.80791 14.6538C5.54145 16.8845 10.4662 21.3628 12.7724 23.4207C13.1963 23.799 13.4083 23.9882 13.6565 24.0626C13.872 24.1273 14.1114 24.1273 14.3269 24.0626C14.5751 23.9882 14.7871 23.799 15.211 23.4207C17.5172 21.3628 22.4419 16.8845 24.1755 14.6538C26.4706 11.7005 26.1093 7.49918 23.1365 5.02835C20.1638 2.55752 16.3243 3.2648 13.9917 5.99178Z" stroke="black" stroke-width="2" stroke-linecap="round" stroke-linejoin="round"/>
</svg>
