<svg width="20" height="20" viewBox="0 0 20 20" fill="none" xmlns="http://www.w3.org/2000/svg">
<path fill-rule="evenodd" clip-rule="evenodd" d="M9.99462 4.27985C8.32849 2.332 5.55011 1.80804 3.46257 3.59168C1.37503 5.37532 1.08113 8.35748 2.72049 10.467C3.95873 12.0604 7.4764 15.2591 9.12367 16.7291C9.42648 16.9993 9.57789 17.1344 9.75518 17.1876C9.9091 17.2338 10.0801 17.2338 10.2341 17.1876C10.4113 17.1344 10.5628 16.9993 10.8656 16.7291C12.5128 15.2591 16.0305 12.0604 17.2687 10.467C18.9081 8.35748 18.6501 5.35656 16.5267 3.59168C14.4032 1.8268 11.6607 2.332 9.99462 4.27985Z" fill="black" stroke="black" stroke-width="1.2" stroke-linecap="round" stroke-linejoin="round"/>
<path d="M7 10.0833L8.66667 11.75L12.4167 8" stroke="white" stroke-width="1.2" stroke-linecap="round" stroke-linejoin="round"/>
</svg>
