<svg width="49" height="49" viewBox="0 0 49 49" fill="none" xmlns="http://www.w3.org/2000/svg">
<path d="M24.3996 40.6666H42.6996M6.09961 40.6666H9.50451C10.4992 40.6666 10.9965 40.6666 11.4645 40.5543C11.8795 40.4546 12.2762 40.2903 12.64 40.0674C13.0504 39.8159 13.4021 39.4642 14.1054 38.7609L39.6497 13.2166C41.3341 11.5322 41.3341 8.80109 39.6497 7.11662C37.9652 5.43215 35.2341 5.43216 33.5497 7.11662L8.00537 32.6609C7.30203 33.3642 6.95036 33.7159 6.69887 34.1263C6.4759 34.4901 6.31159 34.8868 6.21197 35.3017C6.09961 35.7698 6.09961 36.2671 6.09961 37.2618V40.6666Z" stroke="black" stroke-width="4.06667" stroke-linecap="round" stroke-linejoin="round"/>
</svg>
