<svg xmlns="http://www.w3.org/2000/svg" width="25" height="24" viewBox="0 0 25 24" fill="none">
  <path d="M9.5 21V13.6C9.5 13.0399 9.5 12.7599 9.609 12.546C9.70487 12.3578 9.85785 12.2049 10.046 12.109C10.2599 12 10.54 12 11.1 12H13.9C14.4601 12 14.7401 12 14.954 12.109C15.1422 12.2049 15.2951 12.3578 15.391 12.546C15.5 12.7599 15.5 13.0399 15.5 13.6V21M2.5 9.5L11.54 2.72C11.8843 2.46181 12.0564 2.33271 12.2454 2.28294C12.4123 2.23902 12.5877 2.23902 12.7546 2.28295C12.9436 2.33271 13.1157 2.46181 13.46 2.72L22.5 9.5M4.5 8V17.8C4.5 18.9201 4.5 19.4802 4.71799 19.908C4.90974 20.2843 5.2157 20.5903 5.59202 20.782C6.01985 21 6.5799 21 7.7 21H17.3C18.4201 21 18.9802 21 19.408 20.782C19.7843 20.5903 20.0903 20.2843 20.282 19.908C20.5 19.4802 20.5 18.9201 20.5 17.8V8L14.42 3.44C13.7315 2.92361 13.3872 2.66542 13.0091 2.56589C12.6754 2.47804 12.3246 2.47804 11.9909 2.56589C11.6128 2.66542 11.2685 2.92361 10.58 3.44L4.5 8Z" stroke="black" stroke-width="2" stroke-linecap="round" stroke-linejoin="round"/>
</svg>