<svg xmlns="http://www.w3.org/2000/svg" width="16" height="17" viewBox="0 0 16 17" fill="none">
  <path d="M8.00008 9.16732C8.36827 9.16732 8.66675 8.86884 8.66675 8.50065C8.66675 8.13246 8.36827 7.83398 8.00008 7.83398C7.63189 7.83398 7.33342 8.13246 7.33342 8.50065C7.33342 8.86884 7.63189 9.16732 8.00008 9.16732Z" stroke="black" stroke-width="1.2" stroke-linecap="round" stroke-linejoin="round"/>
  <path d="M12.6667 9.16732C13.0349 9.16732 13.3334 8.86884 13.3334 8.50065C13.3334 8.13246 13.0349 7.83398 12.6667 7.83398C12.2986 7.83398 12.0001 8.13246 12.0001 8.50065C12.0001 8.86884 12.2986 9.16732 12.6667 9.16732Z" stroke="black" stroke-width="1.2" stroke-linecap="round" stroke-linejoin="round"/>
  <path d="M3.33341 9.16732C3.7016 9.16732 4.00008 8.86884 4.00008 8.50065C4.00008 8.13246 3.7016 7.83398 3.33341 7.83398C2.96522 7.83398 2.66675 8.13246 2.66675 8.50065C2.66675 8.86884 2.96522 9.16732 3.33341 9.16732Z" stroke="black" stroke-width="1.2" stroke-linecap="round" stroke-linejoin="round"/>
</svg>