<svg width="24" height="24" viewBox="0 0 24 24" fill="none" xmlns="http://www.w3.org/2000/svg">
<g id="Clip path group">
<mask id="mask0_269_4523" style="mask-type:luminance" maskUnits="userSpaceOnUse" x="0" y="0" width="24" height="24">
<g id="clip0_710_6217">
<path id="Vector" d="M24 0H0V24H24V0Z" fill="white"/>
</g>
</mask>
<g mask="url(#mask0_269_4523)">
<g id="Group">
<path id="Vector_2" d="M23.52 12.272C23.52 11.4211 23.4437 10.6029 23.3018 9.81738H12V14.4592H18.4582C18.18 15.9592 17.3346 17.2301 16.0637 18.0811V21.092H19.9418C22.2109 19.0029 23.52 15.9265 23.52 12.272Z" fill="#4285F4"/>
<path id="Vector_3" d="M11.9996 24.0013C15.2396 24.0013 17.9559 22.9267 19.9413 21.094L16.0631 18.0831C14.9886 18.8031 13.614 19.2285 11.9996 19.2285C8.87404 19.2285 6.22864 17.1176 5.28496 14.2812H1.27588V17.3903C3.25048 21.3122 7.30864 24.0013 11.9996 24.0013Z" fill="#34A853"/>
<path id="Vector_4" d="M5.2854 14.2794C5.0454 13.5594 4.90908 12.7904 4.90908 11.9994C4.90908 11.2085 5.0454 10.4394 5.2854 9.71943V6.61035H1.27632C0.463679 8.23035 0 10.0631 0 11.9994C0 13.9358 0.463679 15.7685 1.27632 17.3885L5.2854 14.2794Z" fill="#FBBC04"/>
<path id="Vector_5" d="M11.9996 4.77276C13.7613 4.77276 15.3431 5.37816 16.5868 6.56724L20.0286 3.1254C17.9505 1.18908 15.234 0 11.9996 0C7.30864 0 3.25048 2.68908 1.27588 6.61092L5.28496 9.72C6.22864 6.88368 8.87404 4.77276 11.9996 4.77276Z" fill="#E94235"/>
</g>
</g>
</g>
</svg>
