<svg width="77" height="28" viewBox="0 0 77 28" fill="none" xmlns="http://www.w3.org/2000/svg">
<g id="_&#235;&#160;&#136;&#236;&#157;&#180;&#236;&#150;&#180;_1" clip-path="url(#clip0_1211_4434)">
<g id="Group">
<path id="Vector" d="M20.0921 21.1078C19.5188 16.8559 19.5188 10.5532 20.0921 5.12567C20.3327 2.62221 21.8122 0.84375 24.5588 0.84375C28.8751 0.84375 29.3884 5.45612 28.9653 10.3729C28.6325 14.3224 27.6061 16.4934 26.1286 18.3339C25.7958 18.7865 26.3691 19.2091 26.732 18.7865C28.3018 16.7958 30.2324 15.1075 32.8586 15.1075C36.5114 15.1075 38.019 17.3085 38.2616 19.9321C38.7748 25.1193 34.0054 26.6554 28.7228 26.6554C24.2862 26.6554 20.6635 25.6 20.0901 21.1078H20.0921Z" fill="#FE81C4"/>
<path id="Vector_2" d="M28.7242 27.1588C26.0839 27.1588 24.1774 26.7943 22.7219 26.0092C20.9336 25.0459 19.8831 23.4196 19.5964 21.1745C19.017 16.8746 19.015 10.5539 19.5964 5.07429C19.8811 2.1142 21.7375 0.34375 24.5623 0.34375C25.9697 0.34375 27.1004 0.800381 27.9263 1.69962C29.3557 3.25577 29.8449 6.0256 29.468 10.4157C29.2375 13.1555 28.6942 15.1863 27.6697 16.9747C28.9387 15.729 30.6448 14.6055 32.8621 14.6055C36.3043 14.6055 38.4555 16.5301 38.7642 19.8848C38.9487 21.7473 38.4976 23.2935 37.425 24.4771C35.8132 26.2536 32.8862 27.1548 28.7262 27.1548L28.7242 27.1588ZM24.5583 1.34914C22.2708 1.34914 20.8254 2.74507 20.5908 5.17843C20.0194 10.5899 20.0174 16.8165 20.5888 21.0444V21.0484C21.0459 24.6313 23.4797 26.1594 28.7242 26.1594C32.5353 26.1594 35.2859 25.3463 36.6792 23.8102C37.5533 22.8448 37.9182 21.5591 37.7638 19.9849C37.5794 17.9881 36.581 15.6128 32.8601 15.6128C30.8253 15.6128 29.0029 16.7204 27.1264 19.0997L27.1124 19.1157C26.7736 19.5102 26.2303 19.5803 25.8494 19.2779C25.5246 19.0216 25.3782 18.5149 25.7231 18.0422L25.7371 18.0242C26.944 16.5221 28.1108 14.5514 28.4656 10.3356C28.8124 6.29798 28.3934 3.69638 27.1846 2.38056C26.547 1.68761 25.687 1.34914 24.5583 1.34914Z" fill="white"/>
</g>
<g id="Group_2">
<path id="Vector_3" d="M32.7546 14.0157C32.5741 5.9065 35.6314 0.801443 44.4726 0.607174C53.3438 0.410903 56.5935 5.37576 56.774 13.485C56.9544 21.5942 53.3839 26.7092 45.056 26.8935C36.7281 27.0778 32.935 22.1249 32.7546 14.0157ZM44.7552 16.0425C45.5732 14.8188 45.7476 13.1846 45.7456 11.6765C45.7596 10.9815 44.7051 11.0356 44.6851 11.5183C44.6269 12.9983 44.3843 14.2701 43.7228 15.7321C43.4301 16.1607 44.3743 16.5612 44.7552 16.0405V16.0425Z" fill="#FF9456"/>
<g id="Group_3">
<path id="Vector_4" d="M44.6132 27.4011C40.6478 27.4011 37.5764 26.2255 35.4794 23.9023C33.4345 21.6371 32.3499 18.3165 32.2557 14.0286C32.1575 9.60651 33.0035 6.33599 34.8419 4.03281C36.8407 1.52535 40.0784 0.20352 44.4629 0.107387C52.893 -0.0808735 57.073 4.29317 57.2775 13.4739C57.476 22.4002 53.2539 27.2148 45.0683 27.3951C44.916 27.3991 44.7636 27.4011 44.6132 27.4011ZM44.9761 1.10276C44.8137 1.10276 44.6493 1.10276 44.4849 1.10877C40.3551 1.2009 37.4561 2.3605 35.6238 4.65767C33.9377 6.76859 33.1639 9.82682 33.2561 14.0066C33.3463 18.0462 34.3447 21.1505 36.2232 23.2313C38.1959 25.4164 41.159 26.4778 45.0463 26.3957C48.9296 26.3096 51.8465 25.1159 53.721 22.8448C55.5053 20.6818 56.3653 17.5375 56.2751 13.4979C56.0887 5.05422 52.4941 1.10476 44.9781 1.10476L44.9761 1.10276ZM44.2423 16.7904C43.9877 16.7904 43.7371 16.7143 43.5407 16.5761C43.1658 16.3118 43.0595 15.8652 43.2801 15.4987C43.8614 14.2029 44.1241 13.0413 44.1842 11.5031C44.2043 11.0044 44.6433 10.6419 45.2307 10.658C45.8321 10.676 46.2592 11.1106 46.2471 11.6894C46.2511 12.9772 46.1429 14.8718 45.1726 16.3218L45.1605 16.3398C44.932 16.6522 44.5852 16.7904 44.2423 16.7904ZM45.1806 11.6593C45.1084 13.2135 44.8257 14.4632 44.2464 15.7911C44.2544 15.7911 44.2644 15.7911 44.2744 15.7911C44.3185 15.785 44.3386 15.769 44.3466 15.757C44.9641 14.8257 45.2488 13.5319 45.2447 11.6834C45.2447 11.6774 45.2447 11.6714 45.2447 11.6674C45.2287 11.6634 45.2046 11.6614 45.1806 11.6614V11.6593Z" fill="white"/>
<path id="Vector_5" d="M44.6109 27.5C40.6173 27.5 37.5179 26.3124 35.4029 23.9672C33.342 21.684 32.2493 18.3414 32.1531 14.0294C32.0549 9.58129 32.9069 6.29074 34.7593 3.96953C36.7822 1.43804 40.044 0.104192 44.4605 0.00605661C48.7408 -0.0900762 51.8722 0.957371 54.0274 3.20648C56.1785 5.45158 57.2731 8.80822 57.3774 13.4707C57.4756 17.9388 56.4712 21.4076 54.3923 23.7789C52.3093 26.1542 49.1738 27.4039 45.072 27.494C44.9176 27.498 44.7653 27.5 44.6149 27.5H44.6109ZM44.9898 0.200325C44.8154 0.200325 44.641 0.202328 44.4625 0.206333C40.1101 0.302466 36.8985 1.61027 34.9157 4.09371C33.0934 6.37686 32.2554 9.62535 32.3516 14.0254C32.4458 18.2873 33.5224 21.5879 35.5492 23.833C37.6242 26.1322 40.6735 27.2998 44.6089 27.2998C44.7592 27.2998 44.9096 27.2998 45.062 27.2938C49.1056 27.2036 52.193 25.9779 54.2359 23.6467C56.2828 21.3135 57.2691 17.8908 57.1709 13.4747C57.0687 8.8663 55.9921 5.55172 53.877 3.34467C51.8522 1.23175 48.9392 0.200325 44.9858 0.200325H44.9898ZM44.6249 26.4987C40.9161 26.4987 38.0652 25.4232 36.1467 23.2982C34.2521 21.1993 33.2457 18.073 33.1555 14.0094C33.0633 9.8056 33.8432 6.72734 35.5452 4.5964C37.3976 2.27519 40.3206 1.10157 44.4826 1.00944C44.649 1.00544 44.8134 1.00343 44.9758 1.00343C52.5619 1.00343 56.1845 4.97292 56.373 13.4947C56.4632 17.5583 55.5951 20.7267 53.7968 22.9077C51.9043 25.2009 48.9593 26.4085 45.0479 26.4947C44.9056 26.4967 44.7653 26.4987 44.6269 26.4987H44.6249ZM44.9758 1.20171C44.8134 1.20171 44.651 1.20171 44.4866 1.20772C40.3888 1.29784 37.5139 2.44743 35.7016 4.71857C34.0316 6.81146 33.2638 9.84766 33.356 14.0034C33.4442 18.0189 34.4346 21.1012 36.297 23.1641C38.2457 25.323 41.1887 26.3785 45.0439 26.2944C48.8951 26.2083 51.788 25.0266 53.6425 22.7795C55.4107 20.6366 56.2627 17.5142 56.1745 13.4987C55.9881 5.11111 52.4296 1.20371 44.9778 1.20371L44.9758 1.20171ZM44.242 16.8894C43.9653 16.8894 43.6967 16.8073 43.4822 16.6571C43.0632 16.3607 42.9429 15.864 43.1915 15.4474C43.7629 14.1736 44.0235 13.026 44.0816 11.4999C44.1037 10.9452 44.6049 10.5426 45.2304 10.5586C45.8899 10.5787 46.3571 11.0553 46.343 11.6922C46.347 12.996 46.2368 14.9046 45.2524 16.3787L45.2384 16.3987C45.0098 16.7131 44.645 16.8914 44.238 16.8914L44.242 16.8894ZM45.1903 10.7569C44.6811 10.7569 44.3021 11.0673 44.2841 11.5059C44.224 13.0601 43.9593 14.2297 43.3699 15.5395C43.1714 15.872 43.2677 16.2605 43.5985 16.4928C43.7789 16.619 44.0074 16.6891 44.242 16.6891C44.5848 16.6891 44.8896 16.5389 45.078 16.2805L45.088 16.2645C46.0403 14.8386 46.1466 12.97 46.1446 11.6902C46.1566 11.1655 45.7697 10.7749 45.2264 10.7589C45.2143 10.7589 45.2023 10.7589 45.1883 10.7589L45.1903 10.7569ZM44.0916 15.892L44.1538 15.7478C44.7312 14.426 45.0078 13.2023 45.08 11.6521L45.084 11.56L45.1762 11.556C45.2003 11.556 45.2364 11.556 45.2705 11.566L45.3426 11.5861V11.6622C45.3466 13.5468 45.056 14.8586 44.4285 15.8079C44.3904 15.854 44.3442 15.878 44.2841 15.886C44.2721 15.886 44.26 15.888 44.246 15.888L44.0896 15.892H44.0916Z" fill="white"/>
</g>
</g>
<g id="Group_4">
<path id="Vector_6" d="M76.499 19.7575C76.499 24.1296 73.3595 26.1504 68.4999 26.7232C67.3231 26.8433 65.9939 26.9034 64.6968 26.9034C62.8865 26.9034 61.0741 26.7832 59.5044 26.631C57.241 26.3907 54.9174 24.5502 54.7049 21.3838C54.4022 16.1365 54.4944 11.434 54.735 6.1267C54.9154 2.93028 57.241 1.12178 59.5044 0.879447C61.0441 0.729239 62.8544 0.609073 64.6346 0.609073C65.9939 0.579031 67.3211 0.639114 68.4979 0.789322C73.3575 1.30203 76.074 2.75003 76.074 7.69486C76.074 10.5288 74.7769 13.2425 70.3984 13.2425C69.9153 13.2425 69.9153 14.1478 70.3984 14.1478C71.2444 14.1478 72.3912 14.0877 73.4176 13.605C75.5307 14.2679 76.497 16.2887 76.497 19.7555L76.499 19.7575Z" fill="#FE81C4"/>
<path id="Vector_7" d="M64.6987 27.4053C63.1129 27.4053 61.3507 27.3132 59.4602 27.131C57.0945 26.8786 54.4462 24.984 54.2096 21.4191C53.8828 15.7292 54.0312 10.6962 54.2397 6.1059C54.4422 2.53296 57.0865 0.636339 59.4561 0.38399C61.2885 0.203741 63.0788 0.109611 64.6405 0.109611C66.0178 0.0775668 67.3811 0.141655 68.5679 0.293866C73.3734 0.800566 76.5811 2.25458 76.5811 7.69609C76.5811 10.3458 75.5105 12.2183 73.5598 13.1236L73.5739 13.1276C75.8814 13.8526 77.0041 16.0216 77.0041 19.7568C77.0041 24.0487 74.1633 26.5582 68.5639 27.2191C67.3851 27.3392 66.0519 27.4033 64.7027 27.4033L64.6987 27.4053ZM65.3101 1.10298C65.0916 1.10298 64.8711 1.10499 64.6486 1.11099C63.1089 1.11099 61.3507 1.20312 59.5544 1.37937C57.5957 1.58765 55.4065 3.17184 55.2361 6.15597C55.0296 10.7163 54.8812 15.7172 55.206 21.357C55.4045 24.3411 57.6017 25.9253 59.5584 26.1336C61.4128 26.3118 63.143 26.4019 64.6967 26.4019C66.0138 26.4019 67.3109 26.3399 68.4496 26.2237C73.5258 25.6249 75.9977 23.5099 75.9977 19.7568C75.9977 16.5744 75.1857 14.7839 73.4456 14.143C72.387 14.5896 71.2704 14.6497 70.4023 14.6497C69.9091 14.6497 69.5382 14.2391 69.5382 13.6964C69.5382 13.1536 69.9091 12.7431 70.4023 12.7431C72.7619 12.7431 75.5767 11.8679 75.5767 7.69609C75.5767 2.96556 72.9624 1.7659 68.4496 1.28924C67.4913 1.16707 66.4188 1.10298 65.3101 1.10298Z" fill="white"/>
</g>
<g id="Group_5">
<path id="Vector_8" d="M22.4843 19.7575C22.4843 24.1296 19.3448 26.1504 14.4852 26.7232C13.3084 26.8433 11.9792 26.9034 10.6821 26.9034C8.87181 26.9034 7.05948 26.7832 5.48973 26.631C3.22632 26.3907 0.90277 24.5502 0.690263 21.3838C0.387539 16.1365 0.47976 11.434 0.720335 6.1267C0.900766 2.93028 3.22632 1.12178 5.48973 0.879447C7.02941 0.729239 8.83974 0.609073 10.62 0.609073C11.9792 0.579031 13.3064 0.639114 14.4832 0.789322C19.3428 1.30203 22.0593 2.75003 22.0593 7.69486C22.0593 10.5288 20.7622 13.2425 16.3838 13.2425C15.9006 13.2425 15.9006 14.1478 16.3838 14.1478C17.2298 14.1478 18.3765 14.0877 19.403 13.605C21.516 14.2679 22.4823 16.2887 22.4823 19.7555L22.4843 19.7575Z" fill="#FE81C4"/>
<path id="Vector_9" d="M10.6817 27.4045C9.09594 27.4045 7.33373 27.3124 5.44321 27.1301C3.07756 26.8778 0.429233 24.9832 0.192668 21.4182C-0.136118 15.7304 0.0122366 10.6974 0.220735 6.10507C0.423219 2.53213 3.06754 0.635514 5.4372 0.383165C7.26958 0.202916 9.05986 0.108786 10.6216 0.108786C11.9989 0.0787447 13.3621 0.142833 14.549 0.293041C19.3545 0.799741 22.5621 2.25375 22.5621 7.69527C22.5621 10.3449 21.4916 12.2175 19.5409 13.1228L19.5549 13.1268C21.8625 13.8518 22.9851 16.0208 22.9851 19.7559C22.9851 24.0479 20.1443 26.5573 14.545 27.2182C13.3661 27.3384 12.033 27.4025 10.6837 27.4025L10.6817 27.4045ZM11.2932 1.10216C11.0747 1.10216 10.8541 1.10416 10.6316 1.11017C9.09193 1.11017 7.33373 1.2023 5.53744 1.37854C3.58076 1.58883 1.39153 3.17302 1.22313 6.15714C1.01664 10.7174 0.868282 15.7184 1.19306 21.3581C1.39153 24.3423 3.58878 25.9265 5.54546 26.1348C7.39989 26.313 9.13002 26.4031 10.6837 26.4031C12.0009 26.4031 13.298 26.341 14.4367 26.2249C19.5128 25.626 21.9847 23.5111 21.9847 19.7579C21.9847 16.5755 21.1728 14.7851 19.4326 14.1442C18.3741 14.5908 17.2574 14.6509 16.3894 14.6509C15.8962 14.6509 15.5253 14.2403 15.5253 13.6976C15.5253 13.1548 15.8962 12.7442 16.3894 12.7442C18.749 12.7442 21.5637 11.869 21.5637 7.69727C21.5637 2.96673 18.9495 1.76708 14.4367 1.29042C13.4784 1.16825 12.4059 1.10416 11.2972 1.10416L11.2932 1.10216Z" fill="white"/>
</g>
</g>
<defs>
<clipPath id="clip0_1211_4434">
<rect width="77" height="27.5" fill="white"/>
</clipPath>
</defs>
</svg>
