<svg width="231" height="67" viewBox="0 0 231 67" fill="none" xmlns="http://www.w3.org/2000/svg">
<path d="M47.9148 32.7548C53.2216 34.4226 55.6476 39.502 55.6476 48.2203C55.6476 59.213 47.7632 64.2924 35.5575 65.7329C32.6008 66.0361 29.2651 66.1877 26.0052 66.1877C21.4565 66.1877 16.9078 65.8845 12.9656 65.5054C7.27971 64.8989 1.44221 60.2744 0.911527 52.3142C0.15341 39.1229 0.380845 27.2963 0.987339 13.9535C1.44221 5.91741 7.27971 1.36871 12.9656 0.762215C16.832 0.383157 21.3807 0.0799091 25.8536 0.0799091C29.2651 0.00409836 32.6008 0.15572 35.5575 0.534778C47.7632 1.82358 54.5862 5.46254 54.5862 17.8957C54.5862 25.022 51.3263 31.845 40.3336 31.845C39.1206 31.845 39.1206 34.1194 40.3336 34.1194C42.4563 34.1194 45.3372 33.9677 47.9148 32.7548ZM20.85 21.6862C24.0341 23.4299 27.294 24.0364 30.8572 23.6574C32.6008 23.4299 32.3734 20.7765 31.1604 20.8523C27.3698 21.0798 24.7164 20.4733 21.4565 19.1086C20.2435 18.578 19.258 20.7765 20.85 21.6862ZM20.85 43.9749C24.0341 45.7186 27.294 46.3251 30.8572 45.946C32.6008 45.7186 32.3734 43.0651 31.1604 43.141C27.3698 43.3684 24.7164 42.7619 21.4565 41.3215C20.2435 40.7908 19.258 43.0651 20.85 43.9749ZM61.7824 51.7835C60.342 41.094 60.342 25.2494 61.7824 11.6033C62.3889 5.31092 66.1037 0.838025 73.0025 0.838025C83.8436 0.838025 85.1324 12.4372 84.071 24.7945C83.2371 34.7259 80.6595 40.1843 76.9447 44.8088C76.1108 45.946 77.5512 47.0074 78.461 45.946C82.4032 40.9424 87.2551 36.697 93.8508 36.697C103.024 36.697 106.815 42.2312 107.421 48.8268C108.71 61.8665 96.7316 65.7329 83.4646 65.7329C72.3202 65.7329 63.2228 63.0794 61.7824 51.7835ZM140.552 66.1877C119.628 66.1877 110.379 53.5272 110.379 33.1338C110.379 12.7405 118.339 0.0799091 140.552 0.0799091C162.841 0.0799091 170.725 12.7405 170.725 33.1338C170.725 53.5272 161.476 66.1877 140.552 66.1877ZM137.823 38.0616C137.065 39.1229 139.415 40.1843 140.4 38.8955C142.523 35.863 143.054 31.7692 143.13 27.9786C143.205 26.235 140.552 26.3108 140.476 27.5237C140.249 31.2385 139.566 34.4226 137.823 38.0616ZM223.229 32.7548C228.536 34.4226 230.962 39.502 230.962 48.2203C230.962 59.213 223.078 64.2924 210.872 65.7329C207.915 66.0361 204.58 66.1877 201.32 66.1877C196.771 66.1877 192.222 65.8845 188.28 65.5054C182.594 64.8989 176.757 60.2744 176.226 52.3142C175.468 39.1229 175.695 27.2963 176.302 13.9535C176.757 5.91741 182.594 1.36871 188.28 0.762215C192.147 0.383157 196.695 0.0799091 201.168 0.0799091C204.58 0.00409836 207.915 0.15572 210.872 0.534778C223.078 1.82358 229.901 5.46254 229.901 17.8957C229.901 25.022 226.641 31.845 215.648 31.845C214.435 31.845 214.435 34.1194 215.648 34.1194C217.771 34.1194 220.652 33.9677 223.229 32.7548ZM196.165 21.6862C199.349 23.4299 202.609 24.0364 206.172 23.6574C207.915 23.4299 207.688 20.7765 206.475 20.8523C202.684 21.0798 200.031 20.4733 196.771 19.1086C195.558 18.578 194.573 20.7765 196.165 21.6862ZM196.165 43.9749C199.349 45.7186 202.609 46.3251 206.172 45.946C207.915 45.7186 207.688 43.0651 206.475 43.141C202.684 43.3684 200.031 42.7619 196.771 41.3215C195.558 40.7908 194.573 43.0651 196.165 43.9749Z" fill="url(#paint0_linear_68_38992)"/>
<defs>
<linearGradient id="paint0_linear_68_38992" x1="-2.5" y1="32.834" x2="233.5" y2="32.834" gradientUnits="userSpaceOnUse">
<stop stop-color="#FF9456"/>
<stop offset="1" stop-color="#FE81C4"/>
</linearGradient>
</defs>
</svg>
