<svg width="21" height="20" viewBox="0 0 21 20" fill="none" xmlns="http://www.w3.org/2000/svg">
<g id="message-circle-02">
<path id="Icon" d="M18 10C18 14.1421 14.6421 17.5 10.5 17.5C9.50238 17.5 8.55025 17.3052 7.67958 16.9516C7.51294 16.8839 7.42962 16.8501 7.36227 16.835C7.29638 16.8202 7.24763 16.8148 7.18011 16.8148C7.11109 16.8148 7.03591 16.8273 6.88554 16.8524L3.92063 17.3466C3.61015 17.3983 3.45491 17.4242 3.34265 17.376C3.2444 17.3339 3.16611 17.2556 3.12397 17.1573C3.07582 17.0451 3.10169 16.8898 3.15344 16.5794L3.64759 13.6145C3.67265 13.4641 3.68518 13.3889 3.68517 13.3199C3.68516 13.2524 3.67976 13.2036 3.665 13.1377C3.6499 13.0704 3.61606 12.9871 3.54839 12.8204C3.19478 11.9497 3 10.9976 3 10C3 5.85786 6.35786 2.5 10.5 2.5C14.6421 2.5 18 5.85786 18 10Z" stroke="black" stroke-width="1.6" stroke-linecap="round" stroke-linejoin="round"/>
</g>
</svg>
