<svg xmlns="http://www.w3.org/2000/svg" width="20" height="20" viewBox="0 0 20 20" fill="none">
  <path d="M2.5 6.66797L12.5 6.66797M12.5 6.66797C12.5 8.04868 13.6193 9.16797 15 9.16797C16.3807 9.16797 17.5 8.04868 17.5 6.66797C17.5 5.28726 16.3807 4.16797 15 4.16797C13.6193 4.16797 12.5 5.28726 12.5 6.66797ZM7.5 13.3346L17.5 13.3346M7.5 13.3346C7.5 14.7153 6.38071 15.8346 5 15.8346C3.61929 15.8346 2.5 14.7153 2.5 13.3346C2.5 11.9539 3.61929 10.8346 5 10.8346C6.38071 10.8346 7.5 11.9539 7.5 13.3346Z" stroke="black" stroke-width="1.6" stroke-linecap="round" stroke-linejoin="round"/>
</svg>