<svg width="55" height="54" viewBox="0 0 55 54" fill="none" xmlns="http://www.w3.org/2000/svg">
<path d="M36.8487 13.4298C42.0606 18.6416 42.0606 27.0916 36.8487 32.3035M17.975 32.3035C12.7631 27.0916 12.7631 18.6416 17.975 13.4298M11.6832 38.5948C2.99686 29.9084 2.99686 15.825 11.6832 7.13867M43.1404 7.13867C51.8268 15.825 51.8268 29.9084 43.1404 38.5948M27.4118 27.3153C29.8687 27.3153 31.8604 25.3236 31.8604 22.8667C31.8604 20.4098 29.8687 18.4181 27.4118 18.4181C24.9549 18.4181 22.9632 20.4098 22.9632 22.8667C22.9632 25.3236 24.9549 27.3153 27.4118 27.3153ZM27.4118 27.3153V47.3338" stroke="black" stroke-width="3.79497" stroke-linecap="round" stroke-linejoin="round"/>
</svg>
