<svg width="54" height="54" viewBox="0 0 54 54" fill="none" xmlns="http://www.w3.org/2000/svg">
<path d="M36.4791 13.4298C41.6909 18.6416 41.6909 27.0916 36.4791 32.3035M17.6053 32.3035C12.3935 27.0916 12.3935 18.6416 17.6053 13.4298M11.3136 38.5948C2.62723 29.9084 2.62723 15.825 11.3136 7.13867M42.7708 7.13867C51.4571 15.825 51.4571 29.9084 42.7708 38.5948M27.0422 27.3153C29.4991 27.3153 31.4908 25.3236 31.4908 22.8667C31.4908 20.4098 29.4991 18.4181 27.0422 18.4181C24.5853 18.4181 22.5936 20.4098 22.5936 22.8667C22.5936 25.3236 24.5853 27.3153 27.0422 27.3153ZM27.0422 27.3153V47.3338" stroke="#2B1099" stroke-width="3.79497" stroke-linecap="round" stroke-linejoin="round"/>
</svg>
