<svg width="64" height="64" viewBox="0 0 64 64" fill="none" xmlns="http://www.w3.org/2000/svg">
<path d="M42.0567 21.4572V13.5715L49.9424 5.68579L52.571 10.9429L57.8282 13.5715L49.9424 21.4572H42.0567ZM42.0567 21.4572L31.5425 31.9714M57.8283 31.9715C57.8283 46.4887 46.0598 58.2572 31.5426 58.2572C17.0254 58.2572 5.25684 46.4887 5.25684 31.9715C5.25684 17.4543 17.0254 5.68579 31.5426 5.68579M44.6854 31.9715C44.6854 39.2301 38.8012 45.1144 31.5426 45.1144C24.284 45.1144 18.3997 39.2301 18.3997 31.9715C18.3997 24.7129 24.284 18.8286 31.5426 18.8286" stroke="url(#paint0_linear_11_3873)" stroke-width="5.25714" stroke-linecap="round" stroke-linejoin="round"/>
<defs>
<linearGradient id="paint0_linear_11_3873" x1="5.25684" y1="31.9715" x2="57.8283" y2="31.9715" gradientUnits="userSpaceOnUse">
<stop stop-color="#FF7C31"/>
<stop offset="1" stop-color="#FE65B7"/>
</linearGradient>
</defs>
</svg>
