<svg width="64" height="64" viewBox="0 0 64 64" fill="none" xmlns="http://www.w3.org/2000/svg">
<path d="M57.8283 31.8284H47.314M15.7711 31.8284H5.25684M31.5426 16.057V5.54272M31.5426 58.1142V47.5999M52.5711 31.8284C52.5711 43.4422 43.1563 52.857 31.5426 52.857C19.9288 52.857 10.514 43.4422 10.514 31.8284C10.514 20.2147 19.9288 10.7999 31.5426 10.7999C43.1563 10.7999 52.5711 20.2147 52.5711 31.8284ZM39.4283 31.8284C39.4283 36.1836 35.8977 39.7142 31.5426 39.7142C27.1874 39.7142 23.6568 36.1836 23.6568 31.8284C23.6568 27.4733 27.1874 23.9427 31.5426 23.9427C35.8977 23.9427 39.4283 27.4733 39.4283 31.8284Z" stroke="url(#paint0_linear_11_3869)" stroke-width="5.25714" stroke-linecap="round" stroke-linejoin="round"/>
<defs>
<linearGradient id="paint0_linear_11_3869" x1="5.25684" y1="31.8284" x2="57.8283" y2="31.8284" gradientUnits="userSpaceOnUse">
<stop stop-color="#FF7C31"/>
<stop offset="1" stop-color="#FE65B7"/>
</linearGradient>
</defs>
</svg>
