<svg width="64" height="64" viewBox="0 0 64 64" fill="none" xmlns="http://www.w3.org/2000/svg">
<path d="M31.5426 58.3998C46.0598 58.3998 57.8283 46.6313 57.8283 32.1141C57.8283 17.5969 46.0598 5.82837 31.5426 5.82837C17.0254 5.82837 5.25684 17.5969 5.25684 32.1141C5.25684 46.6313 17.0254 58.3998 31.5426 58.3998Z" stroke="black" stroke-width="5.25714" stroke-linecap="round" stroke-linejoin="round"/>
<path d="M31.5426 47.8855C40.2529 47.8855 47.314 40.8244 47.314 32.1141C47.314 23.4038 40.2529 16.3427 31.5426 16.3427C22.8322 16.3427 15.7711 23.4038 15.7711 32.1141C15.7711 40.8244 22.8322 47.8855 31.5426 47.8855Z" stroke="black" stroke-width="5.25714" stroke-linecap="round" stroke-linejoin="round"/>
<path d="M31.5426 37.3712C34.446 37.3712 36.7997 35.0175 36.7997 32.1141C36.7997 29.2106 34.446 26.8569 31.5426 26.8569C28.6391 26.8569 26.2854 29.2106 26.2854 32.1141C26.2854 35.0175 28.6391 37.3712 31.5426 37.3712Z" stroke="black" stroke-width="5.25714" stroke-linecap="round" stroke-linejoin="round"/>
</svg>
