<svg width="16" height="16" viewBox="0 0 16 16" fill="none" xmlns="http://www.w3.org/2000/svg">
<g id="thumbs-down">
<path id="Icon" d="M11.3333 1.33337V8.66671M14.6666 6.53337V3.46671C14.6666 2.71997 14.6666 2.3466 14.5213 2.06139C14.3935 1.8105 14.1895 1.60653 13.9386 1.4787C13.6534 1.33337 13.28 1.33337 12.5333 1.33337H5.41196C4.43764 1.33337 3.95048 1.33337 3.55701 1.51166C3.21022 1.6688 2.91549 1.92166 2.70745 2.24052C2.4714 2.6023 2.39732 3.0838 2.24917 4.04679L1.90045 6.31346C1.70505 7.58358 1.60735 8.21864 1.79582 8.71279C1.96125 9.1465 2.27239 9.50917 2.6759 9.73862C3.13564 10 3.77818 10 5.06324 10H5.59995C5.97332 10 6.16001 10 6.30261 10.0727C6.42806 10.1366 6.53004 10.2386 6.59396 10.364C6.66662 10.5067 6.66662 10.6933 6.66662 11.0667V13.0228C6.66662 13.9307 7.40262 14.6667 8.31051 14.6667C8.52706 14.6667 8.7233 14.5392 8.81125 14.3413L11.0518 9.30016C11.1537 9.07087 11.2046 8.95623 11.2852 8.87217C11.3563 8.79786 11.4438 8.74104 11.5406 8.70616C11.6501 8.66671 11.7756 8.66671 12.0265 8.66671H12.5333C13.28 8.66671 13.6534 8.66671 13.9386 8.52138C14.1895 8.39355 14.3935 8.18958 14.5213 7.93869C14.6666 7.65348 14.6666 7.28011 14.6666 6.53337Z" stroke="#E14C19" stroke-width="1.2" stroke-linecap="round" stroke-linejoin="round"/>
</g>
</svg>
