<svg width="78" height="78" viewBox="0 0 78 78" fill="none" xmlns="http://www.w3.org/2000/svg">
<path d="M0.101427 67.5673C0.0566296 67.2239 0.0263529 66.8759 0.0112335 66.524L0.61068 66.4982C0.603585 66.3331 0.6 66.167 0.6 66V65.5H0V64.5H0.6V63.5H0V62.5H0.6V61.5H0V60.5H0.6V59.5H0V58.5H0.6V57.5H0V56.5H0.6V55.5H0V54.5H0.6V53.5H0V52.5H0.6V51.5H0V50.5H0.6V49.5H0V48.5H0.6V47.5H0V46.5H0.6V45.5H0V44.5H0.6V43.5H0V42.5H0.6V41.5H0V40.5H0.6V39.5H0V38.5H0.6V37.5H0V36.5H0.6V35.5H0V34.5H0.6V33.5H0V32.5H0.6V31.5H0V30.5H0.6V29.5H0V28.5H0.6V27.5H0V26.5H0.6V25.5H0V24.5H0.6V23.5H0V22.5H0.6V21.5H0V20.5H0.6V19.5H0V18.5H0.6V17.5H0V16.5H0.6V15.5H0V14.5H0.6V13.5H0V12.5H0.6V12C0.6 11.833 0.603585 11.6669 0.61068 11.5018L0.0112333 11.476C0.0263527 11.1241 0.0566294 10.7761 0.101427 10.4327L0.696387 10.5103C0.739588 10.1791 0.796995 9.85245 0.867969 9.53094L0.282075 9.4016C0.357747 9.05881 0.448076 8.72152 0.552372 8.39043L1.12465 8.5707C1.22472 8.25304 1.33832 7.94138 1.4648 7.63638L0.910566 7.40655C1.04476 7.08294 1.19271 6.76647 1.35368 6.45788L1.88566 6.73537C2.03939 6.44066 2.20564 6.15347 2.38372 5.87453L1.87799 5.55167C2.06613 5.25696 2.26678 4.97102 2.47921 4.69459L2.95496 5.06019C3.15725 4.79695 3.37078 4.54277 3.59484 4.29839L3.15258 3.89292C3.38853 3.63556 3.63556 3.38853 3.89292 3.15258L4.29839 3.59484C4.54277 3.37078 4.79695 3.15725 5.06019 2.95496L4.69459 2.47921C4.97102 2.26678 5.25696 2.06613 5.55167 1.87799L5.87453 2.38372C6.15347 2.20564 6.44066 2.03939 6.73537 1.88566L6.45788 1.35368C6.76647 1.19271 7.08294 1.04476 7.40655 0.910567L7.63638 1.4648C7.94138 1.33832 8.25304 1.22472 8.5707 1.12465L8.39043 0.552373C8.72152 0.448076 9.05881 0.357747 9.4016 0.282075L9.53094 0.86797C9.85245 0.796996 10.1791 0.739588 10.5103 0.696387L10.4327 0.101427C10.7761 0.0566295 11.1241 0.0263527 11.476 0.0112334L11.5018 0.61068C11.6669 0.603585 11.833 0.6 12 0.6H12.5V0H13.5V0.6H14.5V0H15.5V0.6H16.5V0H17.5V0.6H18.5V0H19.5V0.6H20.5V0H21.5V0.6H22.5V0H23.5V0.6H24.5V0H25.5V0.6H26.5V0H27.5V0.6H28.5V0H29.5V0.6H30.5V0H31.5V0.6H32.5V0H33.5V0.6H34.5V0H35.5V0.6H36.5V0H37.5V0.6H38.5V0H39.5V0.6H40.5V0H41.5V0.6H42.5V0H43.5V0.6H44.5V0H45.5V0.6H46.5V0H47.5V0.6H48.5V0H49.5V0.6H50.5V0H51.5V0.6H52.5V0H53.5V0.6H54.5V0H55.5V0.6H56.5V0H57.5V0.6H58.5V0H59.5V0.6H60.5V0H61.5V0.6H62.5V0H63.5V0.6H64.5V0H65.5V0.6H66C66.167 0.6 66.3331 0.603585 66.4982 0.61068L66.524 0.0112333C66.8759 0.0263527 67.2239 0.0566294 67.5673 0.101427L67.4897 0.696387C67.8209 0.739588 68.1476 0.796995 68.4691 0.867969L68.5984 0.282075C68.9412 0.357747 69.2785 0.448076 69.6096 0.552373L69.4293 1.12465C69.747 1.22472 70.0586 1.33832 70.3636 1.4648L70.5935 0.910566C70.9171 1.04476 71.2335 1.19271 71.5421 1.35368L71.2646 1.88566C71.5593 2.03939 71.8465 2.20564 72.1255 2.38372L72.4483 1.87799C72.743 2.06613 73.029 2.26678 73.3054 2.47921L72.9398 2.95496C73.2031 3.15725 73.4572 3.37078 73.7016 3.59484L74.1071 3.15258C74.3644 3.38853 74.6115 3.63556 74.8474 3.89292L74.4052 4.29839C74.6292 4.54277 74.8428 4.79695 75.045 5.06019L75.5208 4.69459C75.7332 4.97102 75.9339 5.25696 76.122 5.55167L75.6163 5.87453C75.7944 6.15347 75.9606 6.44066 76.1143 6.73537L76.6463 6.45788C76.8073 6.76647 76.9552 7.08294 77.0894 7.40655L76.5352 7.63638C76.6617 7.94138 76.7753 8.25304 76.8754 8.5707L77.4476 8.39043C77.5519 8.72152 77.6423 9.05881 77.7179 9.4016L77.132 9.53094C77.203 9.85245 77.2604 10.1791 77.3036 10.5103L77.8986 10.4327C77.9434 10.7761 77.9736 11.1241 77.9888 11.476L77.3893 11.5018C77.3964 11.6669 77.4 11.833 77.4 12V12.5H78V13.5H77.4V14.5H78V15.5H77.4V16.5H78V17.5H77.4V18.5H78V19.5H77.4V20.5H78V21.5H77.4V22.5H78V23.5H77.4V24.5H78V25.5H77.4V26.5H78V27.5H77.4V28.5H78V29.5H77.4V30.5H78V31.5H77.4V32.5H78V33.5H77.4V34.5H78V35.5H77.4V36.5H78V37.5H77.4V38.5H78V39.5H77.4V40.5H78V41.5H77.4V42.5H78V43.5H77.4V44.5H78V45.5H77.4V46.5H78V47.5H77.4V48.5H78V49.5H77.4V50.5H78V51.5H77.4V52.5H78V53.5H77.4V54.5H78V55.5H77.4V56.5H78V57.5H77.4V58.5H78V59.5H77.4V60.5H78V61.5H77.4V62.5H78V63.5H77.4V64.5H78V65.5H77.4V66C77.4 66.167 77.3964 66.3331 77.3893 66.4982L77.9888 66.524C77.9736 66.8759 77.9434 67.2239 77.8986 67.5673L77.3036 67.4897C77.2604 67.8209 77.203 68.1476 77.132 68.4691L77.7179 68.5984C77.6423 68.9412 77.5519 69.2785 77.4476 69.6096L76.8754 69.4293C76.7753 69.747 76.6617 70.0586 76.5352 70.3636L77.0894 70.5935C76.9552 70.9171 76.8073 71.2335 76.6463 71.5421L76.1143 71.2646C75.9606 71.5593 75.7944 71.8465 75.6163 72.1255L76.122 72.4483C75.9339 72.743 75.7332 73.029 75.5208 73.3054L75.045 72.9398C74.8428 73.2031 74.6292 73.4572 74.4052 73.7016L74.8474 74.1071C74.6115 74.3644 74.3644 74.6115 74.1071 74.8474L73.7016 74.4052C73.4572 74.6292 73.2031 74.8428 72.9398 75.045L73.3054 75.5208C73.029 75.7332 72.743 75.9339 72.4483 76.122L72.1255 75.6163C71.8465 75.7944 71.5593 75.9606 71.2646 76.1143L71.5421 76.6463C71.2335 76.8073 70.9171 76.9552 70.5935 77.0894L70.3636 76.5352C70.0586 76.6617 69.747 76.7753 69.4293 76.8754L69.6096 77.4476C69.2785 77.5519 68.9412 77.6423 68.5984 77.7179L68.4691 77.132C68.1476 77.203 67.8209 77.2604 67.4897 77.3036L67.5673 77.8986C67.2239 77.9434 66.8759 77.9736 66.524 77.9888L66.4982 77.3893C66.3331 77.3964 66.167 77.4 66 77.4H65.5V78H64.5V77.4H63.5V78H62.5V77.4H61.5V78H60.5V77.4H59.5V78H58.5V77.4H57.5V78H56.5V77.4H55.5V78H54.5V77.4H53.5V78H52.5V77.4H51.5V78H50.5V77.4H49.5V78H48.5V77.4H47.5V78H46.5V77.4H45.5V78H44.5V77.4H43.5V78H42.5V77.4H41.5V78H40.5V77.4H39.5V78H38.5V77.4H37.5V78H36.5V77.4H35.5V78H34.5V77.4H33.5V78H32.5V77.4H31.5V78H30.5V77.4H29.5V78H28.5V77.4H27.5V78H26.5V77.4H25.5V78H24.5V77.4H23.5V78H22.5V77.4H21.5V78H20.5V77.4H19.5V78H18.5V77.4H17.5V78H16.5V77.4H15.5V78H14.5V77.4H13.5V78H12.5V77.4H12C11.833 77.4 11.6669 77.3964 11.5018 77.3893L11.476 77.9888C11.1241 77.9736 10.7761 77.9434 10.4327 77.8986L10.5103 77.3036C10.1791 77.2604 9.85245 77.203 9.53094 77.132L9.4016 77.7179C9.05881 77.6423 8.72152 77.5519 8.39043 77.4476L8.5707 76.8754C8.25304 76.7753 7.94138 76.6617 7.63638 76.5352L7.40655 77.0894C7.08294 76.9552 6.76647 76.8073 6.45788 76.6463L6.73537 76.1143C6.44066 75.9606 6.15347 75.7944 5.87453 75.6163L5.55167 76.122C5.25696 75.9339 4.97102 75.7332 4.69459 75.5208L5.06019 75.045C4.79695 74.8428 4.54277 74.6292 4.29839 74.4052L3.89292 74.8474C3.63556 74.6115 3.38853 74.3644 3.15258 74.1071L3.59484 73.7016C3.37078 73.4572 3.15725 73.2031 2.95496 72.9398L2.47921 73.3054C2.26678 73.029 2.06612 72.743 1.87799 72.4483L2.38372 72.1255C2.20564 71.8465 2.03939 71.5593 1.88566 71.2646L1.35368 71.5421C1.19271 71.2335 1.04476 70.9171 0.910567 70.5935L1.4648 70.3636C1.33832 70.0586 1.22472 69.747 1.12465 69.4293L0.552373 69.6096C0.448076 69.2785 0.357747 68.9412 0.282075 68.5984L0.86797 68.4691C0.796995 68.1476 0.739588 67.8209 0.696387 67.4897L0.101427 67.5673Z" fill="white"/>
<path d="M0.101427 67.5673C0.0566296 67.2239 0.0263529 66.8759 0.0112335 66.524L0.61068 66.4982C0.603585 66.3331 0.6 66.167 0.6 66V65.5H0V64.5H0.6V63.5H0V62.5H0.6V61.5H0V60.5H0.6V59.5H0V58.5H0.6V57.5H0V56.5H0.6V55.5H0V54.5H0.6V53.5H0V52.5H0.6V51.5H0V50.5H0.6V49.5H0V48.5H0.6V47.5H0V46.5H0.6V45.5H0V44.5H0.6V43.5H0V42.5H0.6V41.5H0V40.5H0.6V39.5H0V38.5H0.6V37.5H0V36.5H0.6V35.5H0V34.5H0.6V33.5H0V32.5H0.6V31.5H0V30.5H0.6V29.5H0V28.5H0.6V27.5H0V26.5H0.6V25.5H0V24.5H0.6V23.5H0V22.5H0.6V21.5H0V20.5H0.6V19.5H0V18.5H0.6V17.5H0V16.5H0.6V15.5H0V14.5H0.6V13.5H0V12.5H0.6V12C0.6 11.833 0.603585 11.6669 0.61068 11.5018L0.0112333 11.476C0.0263527 11.1241 0.0566294 10.7761 0.101427 10.4327L0.696387 10.5103C0.739588 10.1791 0.796995 9.85245 0.867969 9.53094L0.282075 9.4016C0.357747 9.05881 0.448076 8.72152 0.552372 8.39043L1.12465 8.5707C1.22472 8.25304 1.33832 7.94138 1.4648 7.63638L0.910566 7.40655C1.04476 7.08294 1.19271 6.76647 1.35368 6.45788L1.88566 6.73537C2.03939 6.44066 2.20564 6.15347 2.38372 5.87453L1.87799 5.55167C2.06613 5.25696 2.26678 4.97102 2.47921 4.69459L2.95496 5.06019C3.15725 4.79695 3.37078 4.54277 3.59484 4.29839L3.15258 3.89292C3.38853 3.63556 3.63556 3.38853 3.89292 3.15258L4.29839 3.59484C4.54277 3.37078 4.79695 3.15725 5.06019 2.95496L4.69459 2.47921C4.97102 2.26678 5.25696 2.06613 5.55167 1.87799L5.87453 2.38372C6.15347 2.20564 6.44066 2.03939 6.73537 1.88566L6.45788 1.35368C6.76647 1.19271 7.08294 1.04476 7.40655 0.910567L7.63638 1.4648C7.94138 1.33832 8.25304 1.22472 8.5707 1.12465L8.39043 0.552373C8.72152 0.448076 9.05881 0.357747 9.4016 0.282075L9.53094 0.86797C9.85245 0.796996 10.1791 0.739588 10.5103 0.696387L10.4327 0.101427C10.7761 0.0566295 11.1241 0.0263527 11.476 0.0112334L11.5018 0.61068C11.6669 0.603585 11.833 0.6 12 0.6H12.5V0H13.5V0.6H14.5V0H15.5V0.6H16.5V0H17.5V0.6H18.5V0H19.5V0.6H20.5V0H21.5V0.6H22.5V0H23.5V0.6H24.5V0H25.5V0.6H26.5V0H27.5V0.6H28.5V0H29.5V0.6H30.5V0H31.5V0.6H32.5V0H33.5V0.6H34.5V0H35.5V0.6H36.5V0H37.5V0.6H38.5V0H39.5V0.6H40.5V0H41.5V0.6H42.5V0H43.5V0.6H44.5V0H45.5V0.6H46.5V0H47.5V0.6H48.5V0H49.5V0.6H50.5V0H51.5V0.6H52.5V0H53.5V0.6H54.5V0H55.5V0.6H56.5V0H57.5V0.6H58.5V0H59.5V0.6H60.5V0H61.5V0.6H62.5V0H63.5V0.6H64.5V0H65.5V0.6H66C66.167 0.6 66.3331 0.603585 66.4982 0.61068L66.524 0.0112333C66.8759 0.0263527 67.2239 0.0566294 67.5673 0.101427L67.4897 0.696387C67.8209 0.739588 68.1476 0.796995 68.4691 0.867969L68.5984 0.282075C68.9412 0.357747 69.2785 0.448076 69.6096 0.552373L69.4293 1.12465C69.747 1.22472 70.0586 1.33832 70.3636 1.4648L70.5935 0.910566C70.9171 1.04476 71.2335 1.19271 71.5421 1.35368L71.2646 1.88566C71.5593 2.03939 71.8465 2.20564 72.1255 2.38372L72.4483 1.87799C72.743 2.06613 73.029 2.26678 73.3054 2.47921L72.9398 2.95496C73.2031 3.15725 73.4572 3.37078 73.7016 3.59484L74.1071 3.15258C74.3644 3.38853 74.6115 3.63556 74.8474 3.89292L74.4052 4.29839C74.6292 4.54277 74.8428 4.79695 75.045 5.06019L75.5208 4.69459C75.7332 4.97102 75.9339 5.25696 76.122 5.55167L75.6163 5.87453C75.7944 6.15347 75.9606 6.44066 76.1143 6.73537L76.6463 6.45788C76.8073 6.76647 76.9552 7.08294 77.0894 7.40655L76.5352 7.63638C76.6617 7.94138 76.7753 8.25304 76.8754 8.5707L77.4476 8.39043C77.5519 8.72152 77.6423 9.05881 77.7179 9.4016L77.132 9.53094C77.203 9.85245 77.2604 10.1791 77.3036 10.5103L77.8986 10.4327C77.9434 10.7761 77.9736 11.1241 77.9888 11.476L77.3893 11.5018C77.3964 11.6669 77.4 11.833 77.4 12V12.5H78V13.5H77.4V14.5H78V15.5H77.4V16.5H78V17.5H77.4V18.5H78V19.5H77.4V20.5H78V21.5H77.4V22.5H78V23.5H77.4V24.5H78V25.5H77.4V26.5H78V27.5H77.4V28.5H78V29.5H77.4V30.5H78V31.5H77.4V32.5H78V33.5H77.4V34.5H78V35.5H77.4V36.5H78V37.5H77.4V38.5H78V39.5H77.4V40.5H78V41.5H77.4V42.5H78V43.5H77.4V44.5H78V45.5H77.4V46.5H78V47.5H77.4V48.5H78V49.5H77.4V50.5H78V51.5H77.4V52.5H78V53.5H77.4V54.5H78V55.5H77.4V56.5H78V57.5H77.4V58.5H78V59.5H77.4V60.5H78V61.5H77.4V62.5H78V63.5H77.4V64.5H78V65.5H77.4V66C77.4 66.167 77.3964 66.3331 77.3893 66.4982L77.9888 66.524C77.9736 66.8759 77.9434 67.2239 77.8986 67.5673L77.3036 67.4897C77.2604 67.8209 77.203 68.1476 77.132 68.4691L77.7179 68.5984C77.6423 68.9412 77.5519 69.2785 77.4476 69.6096L76.8754 69.4293C76.7753 69.747 76.6617 70.0586 76.5352 70.3636L77.0894 70.5935C76.9552 70.9171 76.8073 71.2335 76.6463 71.5421L76.1143 71.2646C75.9606 71.5593 75.7944 71.8465 75.6163 72.1255L76.122 72.4483C75.9339 72.743 75.7332 73.029 75.5208 73.3054L75.045 72.9398C74.8428 73.2031 74.6292 73.4572 74.4052 73.7016L74.8474 74.1071C74.6115 74.3644 74.3644 74.6115 74.1071 74.8474L73.7016 74.4052C73.4572 74.6292 73.2031 74.8428 72.9398 75.045L73.3054 75.5208C73.029 75.7332 72.743 75.9339 72.4483 76.122L72.1255 75.6163C71.8465 75.7944 71.5593 75.9606 71.2646 76.1143L71.5421 76.6463C71.2335 76.8073 70.9171 76.9552 70.5935 77.0894L70.3636 76.5352C70.0586 76.6617 69.747 76.7753 69.4293 76.8754L69.6096 77.4476C69.2785 77.5519 68.9412 77.6423 68.5984 77.7179L68.4691 77.132C68.1476 77.203 67.8209 77.2604 67.4897 77.3036L67.5673 77.8986C67.2239 77.9434 66.8759 77.9736 66.524 77.9888L66.4982 77.3893C66.3331 77.3964 66.167 77.4 66 77.4H65.5V78H64.5V77.4H63.5V78H62.5V77.4H61.5V78H60.5V77.4H59.5V78H58.5V77.4H57.5V78H56.5V77.4H55.5V78H54.5V77.4H53.5V78H52.5V77.4H51.5V78H50.5V77.4H49.5V78H48.5V77.4H47.5V78H46.5V77.4H45.5V78H44.5V77.4H43.5V78H42.5V77.4H41.5V78H40.5V77.4H39.5V78H38.5V77.4H37.5V78H36.5V77.4H35.5V78H34.5V77.4H33.5V78H32.5V77.4H31.5V78H30.5V77.4H29.5V78H28.5V77.4H27.5V78H26.5V77.4H25.5V78H24.5V77.4H23.5V78H22.5V77.4H21.5V78H20.5V77.4H19.5V78H18.5V77.4H17.5V78H16.5V77.4H15.5V78H14.5V77.4H13.5V78H12.5V77.4H12C11.833 77.4 11.6669 77.3964 11.5018 77.3893L11.476 77.9888C11.1241 77.9736 10.7761 77.9434 10.4327 77.8986L10.5103 77.3036C10.1791 77.2604 9.85245 77.203 9.53094 77.132L9.4016 77.7179C9.05881 77.6423 8.72152 77.5519 8.39043 77.4476L8.5707 76.8754C8.25304 76.7753 7.94138 76.6617 7.63638 76.5352L7.40655 77.0894C7.08294 76.9552 6.76647 76.8073 6.45788 76.6463L6.73537 76.1143C6.44066 75.9606 6.15347 75.7944 5.87453 75.6163L5.55167 76.122C5.25696 75.9339 4.97102 75.7332 4.69459 75.5208L5.06019 75.045C4.79695 74.8428 4.54277 74.6292 4.29839 74.4052L3.89292 74.8474C3.63556 74.6115 3.38853 74.3644 3.15258 74.1071L3.59484 73.7016C3.37078 73.4572 3.15725 73.2031 2.95496 72.9398L2.47921 73.3054C2.26678 73.029 2.06612 72.743 1.87799 72.4483L2.38372 72.1255C2.20564 71.8465 2.03939 71.5593 1.88566 71.2646L1.35368 71.5421C1.19271 71.2335 1.04476 70.9171 0.910567 70.5935L1.4648 70.3636C1.33832 70.0586 1.22472 69.747 1.12465 69.4293L0.552373 69.6096C0.448076 69.2785 0.357747 68.9412 0.282075 68.5984L0.86797 68.4691C0.796995 68.1476 0.739588 67.8209 0.696387 67.4897L0.101427 67.5673Z" stroke="#D9D9D9" stroke-width="1.2" stroke-dasharray="1 1"/>
<path d="M45 29V29.8C45 30.9201 45 31.4802 44.782 31.908C44.5903 32.2843 44.2843 32.5903 43.908 32.782C43.4802 33 42.9201 33 41.8 33H36.2C35.0799 33 34.5198 33 34.092 32.782C33.7157 32.5903 33.4097 32.2843 33.218 31.908C33 31.4802 33 30.9201 33 29.8V29M42.3333 24.3333L39 21M39 21L35.6667 24.3333M39 21V29" stroke="black" stroke-width="1.2" stroke-linecap="round" stroke-linejoin="round"/>
<path d="M28.048 48.668H30.964V49.496H28.048V48.668ZM25.552 46.58C27.172 46.58 28.348 47.612 28.348 49.1C28.348 50.588 27.172 51.608 25.552 51.608C23.932 51.608 22.756 50.588 22.756 49.1C22.756 47.612 23.932 46.58 25.552 46.58ZM25.552 47.42C24.484 47.42 23.716 48.104 23.716 49.1C23.716 50.084 24.484 50.78 25.552 50.78C26.62 50.78 27.388 50.084 27.388 49.1C27.388 48.104 26.62 47.42 25.552 47.42ZM30.52 46.088H31.516V51.908H30.52V46.088ZM24.568 52.448H25.564V53.816H30.532V52.448H31.516V56.792H24.568V52.448ZM25.564 54.608V55.988H30.532V54.608H25.564ZM33.6391 54.776H43.4671V55.604H33.6391V54.776ZM38.0311 52.448H39.0271V55.124H38.0311V52.448ZM34.8271 46.892H42.2551V50.18H35.8471V52.352H34.8631V49.376H41.2711V47.696H34.8271V46.892ZM34.8631 51.932H42.5071V52.748H34.8631V51.932ZM45.9141 51.284H53.3661V52.1H45.9141V51.284ZM44.6781 54.644H54.5061V55.472H44.6781V54.644ZM45.9141 47.084H53.2581V47.912H46.9101V51.644H45.9141V47.084Z" fill="black"/>
</svg>
