<svg xmlns="http://www.w3.org/2000/svg" width="20" height="20" viewBox="0 0 20 20" fill="none">
  <g clip-path="url(#clip0_20_32929)">
    <path d="M7.49984 9.99984L9.1665 11.6665L12.9165 7.9165M6.11131 3.18208C6.78117 3.12863 7.4171 2.86522 7.92856 2.42935C9.12211 1.41222 10.8776 1.41222 12.0711 2.42935C12.5826 2.86522 13.2185 3.12863 13.8884 3.18208C15.4515 3.30683 16.6928 4.54812 16.8176 6.11131C16.871 6.78117 17.1345 7.4171 17.5703 7.92856C18.5875 9.12211 18.5875 10.8776 17.5703 12.0711C17.1345 12.5826 16.871 13.2185 16.8176 13.8884C16.6928 15.4515 15.4515 16.6928 13.8884 16.8176C13.2185 16.871 12.5826 17.1345 12.0711 17.5703C10.8776 18.5875 9.12211 18.5875 7.92856 17.5703C7.4171 17.1345 6.78117 16.871 6.11131 16.8176C4.54812 16.6928 3.30683 15.4515 3.18208 13.8884C3.12863 13.2185 2.86522 12.5826 2.42935 12.0711C1.41222 10.8776 1.41222 9.12211 2.42935 7.92856C2.86522 7.4171 3.12863 6.78117 3.18208 6.11131C3.30683 4.54812 4.54812 3.30683 6.11131 3.18208Z" stroke="#1890FF" stroke-width="2" stroke-linecap="round" stroke-linejoin="round"/>
  </g>
  <defs>
    <clipPath id="clip0_20_32929">
      <rect width="20" height="20" fill="white"/>
    </clipPath>
  </defs>
</svg>